<svg viewBox="0 0 100 100" xmlns="http://www.w3.org/2000/svg">
	<style type="text/css">
	svg {
		--bg-color: hsl(0,0%,90%);
		--theme-color-dark: hsl(210,55%,50%);
		--theme-color-accent: hsl(200,100%,70%);
	}
	@media print,(prefers-color-scheme: light){
		svg {
			--bg-color: hsl(0,0%,15%);
			--theme-dark: 210 55% 50%;
			--theme-accent: 200 100% 70%;
		}
	}
	svg .round-stroke {
		stroke-linecap: round;
		stroke-linejoin: round;
	}
	</style>

	<symbol id="nl" class="round-stroke" viewBox="0 0 130 130" xmlns="http://www.w3.org/2000/svg">
		<g>
			<path d="M 40 80
				l 5 -5
				l 0 20
				a 5 20 0 0 1 10 0
				c 40 -75 -20 -75 20 0
				l 5 -5
				"/>
		</g>
	</symbol>

	<symbol id="ks" class="round-stroke" viewBox="0 0 130 130" xmlns="http://www.w3.org/2000/svg">
		<g>
			<path d="M 20 5
				l 0 120
				m 0 -60
				l 40 -60
				m -40 60
				l 40 60"/>
			<path d="M 110 20
				c -15 -40 -75 10 -20 45
				s -5 90 -20 40"/>
		</g>
	</symbol>

	<mask id="nl-mask">
		<use width="80" height="80" x="10" y="10" href="#nl" fill="none" stroke="white" stroke-width="3"/>
	</mask>
	<mask id="ks-mask">
		<use width="80" height="80" x="10" y="10" href="#ks" fill="none" stroke="white" stroke-width="10"/>
	</mask>

	<g>
		<circle fill="white" r="50" cx="50" cy="50" />
		<circle fill="black" mask="url(#ks-mask)" r="50" cx="50" cy="50"/>
		<circle fill="var(--theme-color-accent)" mask="url(#nl-mask)" r="50" cx="50" cy="50"/>
	</g>
	<rect width="100" height="100" x="0" y="0" fill="none" stroke="red"/>
	<rect width="37.5" height="37.5" x="27.5" y="27.5" fill="none" stroke="red"/>
	<rect width="0.5" height="100" x="50" y="0" fill="none" stroke="red"/>
	<rect width="100" height="0.5" x="0" y="50" fill="none" stroke="red"/>
	<rect width="100" height="0.5" x="0" y="10" fill="none" stroke="red"/>
	<rect width="100" height="0.5" x="0" y="90" fill="none" stroke="red"/>
	<rect width="1" height="100" x="90" y="0" fill="none" stroke="red"/>
	<rect width="1" height="100" x="10" y="0" fill="none" stroke="red"/>
</svg>
